<?xml version="1.0" encoding="UTF-8"?>
<svg width="24" height="24" viewBox="0 0 24 24" fill="none" xmlns="http://www.w3.org/2000/svg">
  <path d="M12 7C14.76 7 17 9.24 17 12C17 12.65 16.87 13.26 16.64 13.83L19.56 16.75C21.07 15.49 22.26 13.86 23 12C21.27 7.61 17 4.5 12 4.5C10.73 4.5 9.51 4.9 8.44 5.56L10.27 7.39C10.74 7.13 11.36 7 12 7ZM2 4.27L3.28 3L20.72 20.44L19.44 21.71L15.73 18C14.74 18.36 13.7 18.5 12.5 18.5C7.5 18.5 3.23 15.39 1.5 11C2.24 9.14 3.43 7.51 4.94 6.25L2 4.27ZM7.53 9.8L9.08 11.35C9.03 11.56 9 11.78 9 12C9 13.66 10.34 15 12 15C12.22 15 12.44 14.97 12.65 14.92L14.2 16.47C13.53 16.8 12.79 17 12 17C9.24 17 7 14.76 7 12C7 11.21 7.2 10.47 7.53 9.8ZM11.84 9.02L14.99 12.17L15.01 12.01C15.01 10.35 13.67 9.01 12.01 9.01L11.84 9.02Z" fill="currentColor"/>
</svg> 